PathFileType	4	(X/Y/Z)	OpenSim_Sub02_CSBaseline_Gyro.trc
DataRate	CameraRate	NumFrames	NumMarkers	Units	OrigDataRate	OrigDataStartFrame	OrigNumFrames
100	100	20	8	m	100	3529	7057
Frame#	Time	torso_imu_offset_imu	pelvis_imu_offset_imu	tibia_r_imu_offset_imu	femur_r_imu_offset_imu	tibia_l_imu_offset_imu	femur_l_imu_offset_imu	toes_r_imu_offset_imu	toes_l_imu_offset_imu
				X1	Y1	Z1	X2	Y2	Z2	X3	Y3	Z3	X4	Y4	Z4	X5	Y5	Z5	X6	Y6	Z6	X7	Y7	Z7	X8		Y8	Z8	

3529	35.28000000	-0.59269795	-0.22306840	-0.00657749	-0.28135330	-0.02174041	0.38009300	-2.57812966	-1.69899838	1.52839581	-0.54962991	0.55452807	1.33075700	0.83440407	0.28540019	0.84700799	1.11597395	-0.42595726	0.38027605	-1.02647206	2.82159536	1.26186436	0.00403294	-0.16649190	0.16184373
3530	35.29000000	-0.58105926	-0.18321422	0.01240831	-0.32086362	-0.01546399	0.41812550	-2.40481460	-1.57296442	1.90127191	-0.43471376	0.50236104	1.29454180	0.71621896	0.31493282	0.86157531	1.16328299	-0.33761426	0.36602504	-1.54007612	2.83880223	1.84879164	0.03254908	-0.16783854	0.16497718
3531	35.30000000	-0.57461190	-0.15813174	0.02865028	-0.34051503	0.00190278	0.44432835	-2.20107788	-1.40523964	2.17482303	-0.20310988	0.47204374	1.25372662	0.71566407	0.34355840	0.88191201	1.13429861	-0.28397870	0.33484724	-1.50294265	3.11199944	2.15823036	0.00471297	-0.16299476	0.16648528
3532	35.31000000	-0.57461902	-0.13648413	0.03174525	-0.33428614	0.03999260	0.45267037	-1.51400622	-1.19796553	2.30723007	0.05880504	0.43639603	1.21365476	0.73929706	0.34660084	0.89479473	1.04833401	-0.26484522	0.30410296	-1.11602179	3.58487733	2.23929752	-0.00514063	-0.13965239	0.17389490
3533	35.32000000	-0.58368115	-0.12547103	0.02092845	-0.30580323	0.08808822	0.44967622	-0.30051732	-0.96949314	2.38204469	0.31473096	0.37770457	1.17907836	0.77738945	0.35347985	0.91585290	0.92076014	-0.24243591	0.28596139	-0.73536769	4.16283163	2.19986070	-0.00125793	-0.12056817	0.17541874
3534	35.33000000	-0.60010832	-0.12945538	0.01528090	-0.26553834	0.13502475	0.44005684	1.00675929	-0.72406442	2.50139381	0.53935576	0.32660331	1.12512159	0.79179192	0.36903041	0.94583367	0.76500037	-0.23934512	0.27375605	-0.72908835	4.58585427	2.10685864	-0.00909526	-0.11176554	0.18303693
3535	35.34000000	-0.61389353	-0.12996633	0.02094137	-0.23496449	0.16329843	0.42941134	1.85134038	-0.59075538	2.70933222	0.70341085	0.29160133	1.05233661	0.75125623	0.36679052	0.95556035	0.59603306	-0.22915787	0.28373197	-1.08597836	4.72567770	1.94558507	-0.02335287	-0.08251366	0.18086692
3536	35.35000000	-0.61962337	-0.11926884	0.01586616	-0.18927324	0.18149441	0.39810374	2.15789987	-0.60689249	3.01794858	0.77827431	0.28089843	0.97029649	0.71431496	0.38060114	0.94660604	0.43686823	-0.20708882	0.30624208	-1.59209192	4.71453722	1.69919731	-0.03084249	-0.07353449	0.19049672
3537	35.36000000	-0.62215943	-0.10982667	0.00239189	-0.15078361	0.18747108	0.35689340	2.17596672	-0.66485569	3.34001576	0.74324598	0.28643352	0.88210137	0.65588804	0.40547926	0.91821980	0.29939255	-0.19138491	0.34153231	-1.88456269	4.66673515	1.40181391	-0.03412276	-0.05301512	0.18339718
3538	35.37000000	-0.61705159	-0.09655625	-0.01448328	-0.10219091	0.19363462	0.31503361	2.03050157	-0.68776254	3.61557332	0.64461322	0.25701765	0.80880248	0.54371680	0.40912937	0.92329706	0.20131323	-0.17026126	0.37549688	-1.85055057	4.63405647	1.12819124	-0.02945675	-0.03738939	0.18128172
3539	35.38000000	-0.59173464	-0.08660764	-0.02704454	-0.06221429	0.19556533	0.27867859	1.76142309	-0.68941481	3.88016967	0.55237159	0.21192400	0.75722744	0.42156195	0.41276147	0.94349858	0.15837795	-0.15015108	0.41316502	-1.58071481	4.66046965	0.97527313	-0.01224347	-0.01659125	0.17479905
3540	35.39000000	-0.56155973	-0.08287741	-0.04223111	-0.03947990	0.19122259	0.23924947	1.62318949	-0.65307507	4.14780436	0.48498002	0.16616137	0.67553660	0.32886892	0.43173313	0.92044168	0.17016744	-0.14469464	0.45005712	-1.30509595	4.71884987	0.99178445	-0.03336295	-0.02232155	0.17860555
3541	35.40000000	-0.52567586	-0.07869154	-0.05566558	-0.03416475	0.17425837	0.20796195	1.75669575	-0.57332323	4.40186569	0.40977951	0.09264159	0.57398174	0.27154318	0.41604289	0.87405252	0.23379439	-0.14344842	0.49454354	-1.17652111	4.66996074	1.19325106	-0.03016661	-0.02494361	0.18207111
3542	35.41000000	-0.49188040	-0.07082438	-0.06436240	-0.03746004	0.15593600	0.18137524	1.92920898	-0.48517648	4.58263317	0.33095824	0.01201487	0.48098134	0.28075537	0.39011645	0.84655992	0.31069486	-0.15310568	0.51543179	-1.22290608	4.45666691	1.52846442	-0.02722211	-0.02380917	0.17180747
3543	35.42000000	-0.44318797	-0.06140727	-0.07104504	-0.02990016	0.13594661	0.14472533	1.67971056	-0.45335469	4.60005171	0.28400058	-0.04397708	0.37219670	0.24311914	0.37148066	0.86449681	0.38314598	-0.16041818	0.51784006	-1.19393886	4.22864614	1.91241150	-0.02272609	-0.03641274	0.17521115
3544	35.43000000	-0.39663799	-0.06008428	-0.07912525	-0.00894124	0.11107043	0.12776614	0.93201916	-0.48687314	4.53450901	0.22929936	-0.06606635	0.22474126	0.21063761	0.34672177	0.86527396	0.44449524	-0.16155235	0.52432863	-0.94453969	4.09223527	2.23627446	-0.01185711	-0.03419320	0.16623979
3545	35.44000000	-0.36135697	-0.05754080	-0.08707810	0.01074102	0.08570293	0.09291182	0.14531306	-0.55950166	4.53229586	0.16211526	-0.06305222	0.03863245	0.26824448	0.35799186	0.83806691	0.49138797	-0.15685793	0.55367303	-0.64383922	4.07397824	2.47616229	-0.01696344	-0.05766346	0.17267152
3546	35.45000000	-0.32928809	-0.04695365	-0.09739852	0.04772273	0.05621770	0.07263143	-0.30683327	-0.64911735	4.63856456	0.10537336	-0.06912345	-0.14126374	0.27512716	0.37562631	0.81688094	0.53816721	-0.15610525	0.58301569	-0.47131163	4.14501761	2.66368170	-0.01201657	-0.06345669	0.17872368
3547	35.46000000	-0.30104682	-0.03394978	-0.10192823	0.09849439	0.03094849	0.05994430	-0.29414810	-0.69587486	4.83666425	0.06493884	-0.08313835	-0.32236066	0.25651862	0.37915224	0.83263593	0.57836507	-0.15175240	0.59506482	-0.47588082	4.24550102	2.82569130	0.01120464	-0.07957166	0.18141995
3548	35.47000000	-0.27089829	-0.01842711	-0.10163977	0.13309273	0.00011886	0.02803574	0.23719059	-0.71407983	5.01312358	0.02701696	-0.10759024	-0.49658189	0.30523279	0.40075079	0.86664039	0.62311876	-0.14913932	0.62213977	-0.54839912	4.34486329	2.97822510	0.04195846	-0.07451903	0.17754331
